# xmcd CD database file
#
# Track frame offsets:
#	150
#	29385
#	57363
#	84324
#	135123
#	166731
#	212894
#
# Disc length: 3531 seconds
#
# Revision: 0
# Processed by: cddbd v1.5.2PL0 Copyright (c) Steve Scherf et al.
# Submitted via: CDex 1.51
#
DISCID=500dc907
DTITLE=Cennet Jönsson Quartet - Antelope Dance
DYEAR=2007
DGENRE=Jazz
TTITLE0=Galucia
TTITLE1=Baobop
TTITLE2=Sweet Drops
TTITLE3=Professor Nutty
TTITLE4=So it Seems
TTITLE5=Antelope Dance
TTITLE6=Lullaby of the Sea
EXTD=YEAR: 2007
EXTT0=
EXTT1=
EXTT2=
EXTT3=
EXTT4=
EXTT5=
EXTT6=
PLAYORDER=
